<svg width="100" height="56" viewBox="0 0 100 56" fill="none" xmlns="http://www.w3.org/2000/svg">
<line x1="19.5" y1="1.5" x2="80.5" y2="1.5" stroke="#FF8303" stroke-width="3" stroke-linecap="round"/>
<path d="M16.1967 20.5455V38H14.1513L4.63991 24.2955H4.46946V38H2.35582V20.5455H4.40128L13.9467 34.2841H14.1172V20.5455H16.1967ZM25.4716 38.2727C24.2898 38.2727 23.2528 37.9915 22.3608 37.429C21.4744 36.8665 20.7812 36.0795 20.2812 35.0682C19.7869 34.0568 19.5398 32.875 19.5398 31.5227C19.5398 30.1591 19.7869 28.9687 20.2812 27.9517C20.7812 26.9347 21.4744 26.1449 22.3608 25.5824C23.2528 25.0199 24.2898 24.7386 25.4716 24.7386C26.6534 24.7386 27.6875 25.0199 28.5739 25.5824C29.4659 26.1449 30.1591 26.9347 30.6534 27.9517C31.1534 28.9687 31.4034 30.1591 31.4034 31.5227C31.4034 32.875 31.1534 34.0568 30.6534 35.0682C30.1591 36.0795 29.4659 36.8665 28.5739 37.429C27.6875 37.9915 26.6534 38.2727 25.4716 38.2727ZM25.4716 36.4659C26.3693 36.4659 27.108 36.2358 27.6875 35.7756C28.267 35.3153 28.696 34.7102 28.9744 33.9602C29.2528 33.2102 29.392 32.3977 29.392 31.5227C29.392 30.6477 29.2528 29.8324 28.9744 29.0767C28.696 28.321 28.267 27.7102 27.6875 27.2443C27.108 26.7784 26.3693 26.5455 25.4716 26.5455C24.5739 26.5455 23.8352 26.7784 23.2557 27.2443C22.6761 27.7102 22.2472 28.321 21.9688 29.0767C21.6903 29.8324 21.5511 30.6477 21.5511 31.5227C21.5511 32.3977 21.6903 33.2102 21.9688 33.9602C22.2472 34.7102 22.6761 35.3153 23.2557 35.7756C23.8352 36.2358 24.5739 36.4659 25.4716 36.4659ZM46.9169 24.9091V26.6136H40.1328V24.9091H46.9169ZM42.1101 21.7727H44.1214V34.25C44.1214 34.8182 44.2038 35.2443 44.3686 35.5284C44.5391 35.8068 44.755 35.9943 45.0163 36.0909C45.2834 36.1818 45.5646 36.2273 45.8601 36.2273C46.0817 36.2273 46.2635 36.2159 46.4055 36.1932C46.5476 36.1648 46.6612 36.142 46.7464 36.125L47.1555 37.9318C47.0192 37.983 46.8288 38.0341 46.5845 38.0852C46.3402 38.142 46.0305 38.1705 45.6555 38.1705C45.0874 38.1705 44.5305 38.0483 43.9851 37.804C43.4453 37.5597 42.9964 37.1875 42.6385 36.6875C42.2862 36.1875 42.1101 35.5568 42.1101 34.7955V21.7727ZM53.7947 38.3068C52.9652 38.3068 52.2124 38.1506 51.5362 37.8381C50.8601 37.5199 50.3232 37.0625 49.9254 36.4659C49.5277 35.8636 49.3288 35.1364 49.3288 34.2841C49.3288 33.5341 49.4766 32.9261 49.772 32.4602C50.0675 31.9886 50.4624 31.6193 50.9567 31.3523C51.451 31.0852 51.9964 30.8864 52.593 30.7557C53.1953 30.6193 53.8004 30.5114 54.4084 30.4318C55.2038 30.3295 55.8487 30.2528 56.343 30.2017C56.843 30.1449 57.2067 30.0511 57.4339 29.9205C57.6669 29.7898 57.7834 29.5625 57.7834 29.2386V29.1705C57.7834 28.3295 57.5533 27.6761 57.093 27.2102C56.6385 26.7443 55.9482 26.5114 55.022 26.5114C54.0618 26.5114 53.3089 26.7216 52.7635 27.142C52.218 27.5625 51.8345 28.0114 51.6129 28.4886L49.7038 27.8068C50.0447 27.0114 50.4993 26.392 51.0675 25.9489C51.6413 25.5 52.2663 25.1875 52.9425 25.0114C53.6243 24.8295 54.2947 24.7386 54.9538 24.7386C55.3743 24.7386 55.8572 24.7898 56.4027 24.892C56.9538 24.9886 57.4851 25.1903 57.9964 25.4972C58.5135 25.804 58.9425 26.267 59.2834 26.8864C59.6243 27.5057 59.7947 28.3352 59.7947 29.375V38H57.7834V36.2273H57.6811C57.5447 36.5114 57.3175 36.8153 56.9993 37.1392C56.6811 37.4631 56.2578 37.7386 55.7294 37.9659C55.201 38.1932 54.5561 38.3068 53.7947 38.3068ZM54.1016 36.5C54.897 36.5 55.5675 36.3438 56.1129 36.0312C56.6641 35.7188 57.0788 35.3153 57.3572 34.821C57.6413 34.3267 57.7834 33.8068 57.7834 33.2614V31.4205C57.6982 31.5227 57.5107 31.6165 57.2209 31.7017C56.9368 31.7812 56.6072 31.8523 56.2322 31.9148C55.8629 31.9716 55.5021 32.0227 55.1499 32.0682C54.8033 32.108 54.522 32.142 54.3061 32.1705C53.7834 32.2386 53.2947 32.3494 52.8402 32.5028C52.3913 32.6506 52.0277 32.875 51.7493 33.1761C51.4766 33.4716 51.3402 33.875 51.3402 34.3864C51.3402 35.0852 51.5987 35.6136 52.1158 35.9716C52.6385 36.3239 53.3004 36.5 54.1016 36.5ZM72.7386 27.8409L70.9318 28.3523C70.8182 28.0511 70.6506 27.7585 70.429 27.4744C70.2131 27.1847 69.9176 26.946 69.5426 26.7585C69.1676 26.571 68.6875 26.4773 68.1023 26.4773C67.3011 26.4773 66.6335 26.6619 66.0994 27.0312C65.571 27.3949 65.3068 27.858 65.3068 28.4205C65.3068 28.9205 65.4886 29.3153 65.8523 29.6051C66.2159 29.8949 66.7841 30.1364 67.5568 30.3295L69.5 30.8068C70.6705 31.0909 71.5426 31.5256 72.1165 32.1108C72.6903 32.6903 72.9773 33.4375 72.9773 34.3523C72.9773 35.1023 72.7614 35.7727 72.3295 36.3636C71.9034 36.9545 71.3068 37.4205 70.5398 37.7614C69.7727 38.1023 68.8807 38.2727 67.8636 38.2727C66.5284 38.2727 65.4233 37.983 64.5483 37.4034C63.6733 36.8239 63.1193 35.9773 62.8864 34.8636L64.7955 34.3864C64.9773 35.0909 65.321 35.6193 65.8267 35.9716C66.3381 36.3239 67.0057 36.5 67.8295 36.5C68.767 36.5 69.5114 36.3011 70.0625 35.9034C70.6193 35.5 70.8977 35.017 70.8977 34.4545C70.8977 34 70.7386 33.6193 70.4205 33.3125C70.1023 33 69.6136 32.767 68.9545 32.6136L66.7727 32.1023C65.5739 31.8182 64.6932 31.3778 64.1307 30.7812C63.5739 30.179 63.2955 29.4261 63.2955 28.5227C63.2955 27.7841 63.5028 27.1307 63.9176 26.5625C64.3381 25.9943 64.9091 25.5483 65.6307 25.2244C66.358 24.9006 67.1818 24.7386 68.1023 24.7386C69.3977 24.7386 70.4148 25.0227 71.1534 25.5909C71.8977 26.1591 72.4261 26.9091 72.7386 27.8409ZM77.88 33.2273L77.8459 30.7386H78.255L83.9822 24.9091H86.4709L80.3686 31.0795H80.1982L77.88 33.2273ZM76.005 38V20.5455H78.0163V38H76.005ZM84.3232 38L79.2095 31.5227L80.6413 30.125L86.88 38H84.3232ZM98.3324 27.8409L96.5256 28.3523C96.4119 28.0511 96.2443 27.7585 96.0227 27.4744C95.8068 27.1847 95.5114 26.946 95.1364 26.7585C94.7614 26.571 94.2812 26.4773 93.696 26.4773C92.8949 26.4773 92.2273 26.6619 91.6932 27.0312C91.1648 27.3949 90.9006 27.858 90.9006 28.4205C90.9006 28.9205 91.0824 29.3153 91.446 29.6051C91.8097 29.8949 92.3778 30.1364 93.1506 30.3295L95.0938 30.8068C96.2642 31.0909 97.1364 31.5256 97.7102 32.1108C98.2841 32.6903 98.571 33.4375 98.571 34.3523C98.571 35.1023 98.3551 35.7727 97.9233 36.3636C97.4972 36.9545 96.9006 37.4205 96.1335 37.7614C95.3665 38.1023 94.4744 38.2727 93.4574 38.2727C92.1222 38.2727 91.017 37.983 90.142 37.4034C89.267 36.8239 88.7131 35.9773 88.4801 34.8636L90.3892 34.3864C90.571 35.0909 90.9148 35.6193 91.4205 35.9716C91.9318 36.3239 92.5994 36.5 93.4233 36.5C94.3608 36.5 95.1051 36.3011 95.6562 35.9034C96.2131 35.5 96.4915 35.017 96.4915 34.4545C96.4915 34 96.3324 33.6193 96.0142 33.3125C95.696 33 95.2074 32.767 94.5483 32.6136L92.3665 32.1023C91.1676 31.8182 90.2869 31.3778 89.7244 30.7812C89.1676 30.179 88.8892 29.4261 88.8892 28.5227C88.8892 27.7841 89.0966 27.1307 89.5114 26.5625C89.9318 25.9943 90.5028 25.5483 91.2244 25.2244C91.9517 24.9006 92.7756 24.7386 93.696 24.7386C94.9915 24.7386 96.0085 25.0227 96.7472 25.5909C97.4915 26.1591 98.0199 26.9091 98.3324 27.8409Z" fill="white"/>
<line x1="19.5" y1="54.5" x2="80.5" y2="54.5" stroke="#FF8303" stroke-width="3" stroke-linecap="round"/>
</svg>
